<?xml version="1.0" encoding="UTF-8"?>
<svg xmlns="http://www.w3.org/2000/svg" width="16" height="16" viewBox="0 0 16 16">
  <g fill="#2e3436">
    <path d="M6.5 1c.18 2.75 1.75 4.32 4.5 4.5-2.75.18-4.32 1.75-4.5 4.5C6.32 7.25 4.75 5.68 2 5.5 4.75 5.32 6.32 3.75 6.5 1Z"/>
    <path d="M12.25 8c.11 1.68 1.07 2.64 2.75 2.75-1.68.11-2.64 1.07-2.75 2.75-.11-1.68-1.07-2.64-2.75-2.75 1.68-.11 2.64-1.07 2.75-2.75Z"/>
    <path d="M3 10.5c.07 1.07.68 1.68 1.75 1.75-1.07.07-1.68.68-1.75 1.75-.07-1.07-.68-1.68-1.75-1.75 1.07-.07 1.68-.68 1.75-1.75Z"/>
  </g>
</svg>
